<svg xmlns="http://www.w3.org/2000/svg" xmlns:xlink="http://www.w3.org/1999/xlink" viewBox="0,0,256,256" width="48px" height="48px" fill-rule="nonzero"><g fill="#651fff" fill-rule="nonzero" stroke="none" stroke-width="1" stroke-linecap="butt" stroke-linejoin="miter" stroke-miterlimit="10" stroke-dasharray="" stroke-dashoffset="0" font-family="none" font-weight="none" font-size="none" text-anchor="none" style="mix-blend-mode: normal"><g transform="scale(5.33333,5.33333)"><path d="M39.51758,3.99414c-0.36187,0 -0.724,0.13856 -1,0.41406l-3.86719,3.86719l5.30859,5.30664c0.195,0.196 0.195,0.51298 0,0.70899c-0.196,0.195 -0.51103,0.195 -0.70703,0l-5.30859,-5.30859l-7.07227,7.07227l5.30469,5.30078c0.195,0.196 0.195,0.51103 0,0.70703l-18.85937,18.86133c-0.137,0.138 -0.29012,0.23855 -0.45312,0.31055l-7.5625,4.40039l-0.93945,-0.93945l2.48633,-6.36523c-0.158,-0.05 -0.31013,-0.11236 -0.45312,-0.19336c-0.163,-0.089 -0.30383,-0.19745 -0.42383,-0.31445l-3.96875,10.17188v0.00195c18.467,0 33,-0.224 33,-0.5c0,-0.26767 -12.84227,-0.48123 -30.45508,-0.49414l9.05273,-3.5332l31.99024,-31.98828c0.552,-0.551 0.552,-1.448 0,-2l-5.07422,-5.07227c-0.2755,-0.2755 -0.63617,-0.41406 -0.99805,-0.41406zM40.00195,5.99414c0.25588,0 0.51058,0.09938 0.70508,0.29688c1.299,1.223 2.388,3.05406 2,3.41406c-0.429,0.4 -2.00506,-0.708 -3.41406,-2c-0.388,-0.395 -0.388,-1.02606 0,-1.41406c0.197,-0.1975 0.45311,-0.29687 0.70898,-0.29687zM33.94336,10.39453l4.24219,4.24414l-5.66016,5.6582l-4.24219,-4.24219zM26.16211,16.76172l-19.46875,19.46875c-0.192,0.192 -0.23594,0.38606 -0.21094,0.53906c0.025,0.157 0.13639,0.34709 0.40039,0.49609c0.563,0.315 1.40227,0.2042 1.82227,-0.2168l0.74805,-0.75l18.125,-18.12109zM28.28516,18.88477l-18.50586,18.50391c-0.249,0.249 -0.25397,1.16109 0.70703,2.12109c0.96,0.961 1.87309,0.95603 2.12109,0.70703l18.50391,-18.50586z"></path></g></g></svg>